<svg width="86" height="78" viewBox="0 0 86 78" fill="none" xmlns="http://www.w3.org/2000/svg">
<g clip-path="url(#clip0_913_1494)">
<mask id="mask0_913_1494" style="mask-type:luminance" maskUnits="userSpaceOnUse" x="27" y="15" width="17" height="18">
<path d="M27.4062 15.8789H43.3399V32.7175H27.4062V15.8789Z" fill="white"/>
</mask>
<g mask="url(#mask0_913_1494)">
<mask id="mask1_913_1494" style="mask-type:luminance" maskUnits="userSpaceOnUse" x="27" y="15" width="17" height="18">
<path d="M27.4062 32.7174L43.3399 24.3041L27.4062 15.8906V32.7174Z" fill="white"/>
</mask>
<g mask="url(#mask1_913_1494)">
<path d="M27.4062 32.7175V15.8613H43.3399V32.7175H27.4062Z" fill="#DFC063"/>
</g>
</g>
<mask id="mask2_913_1494" style="mask-type:luminance" maskUnits="userSpaceOnUse" x="43" y="15" width="17" height="18">
<path d="M43.3174 15.8906H59.251V32.7206H43.3174V15.8906Z" fill="white"/>
</mask>
<g mask="url(#mask2_913_1494)">
<mask id="mask3_913_1494" style="mask-type:luminance" maskUnits="userSpaceOnUse" x="43" y="15" width="17" height="18">
<path d="M59.251 15.8906L43.3174 24.3041L59.251 32.7174V15.8906Z" fill="white"/>
</mask>
<g mask="url(#mask3_913_1494)">
<path d="M59.251 15.8906V32.7468H43.3174V15.8906H59.251Z" fill="#DFC063"/>
</g>
</g>
<mask id="mask4_913_1494" style="mask-type:luminance" maskUnits="userSpaceOnUse" x="27" y="0" width="33" height="16">
<path d="M27.3887 0.0078125H59.2676V15.9106H27.3887V0.0078125Z" fill="white"/>
</mask>
<g mask="url(#mask4_913_1494)">
<mask id="mask5_913_1494" style="mask-type:luminance" maskUnits="userSpaceOnUse" x="27" y="0" width="33" height="32">
<path d="M59.2503 15.8869L43.2996 31.7685L27.3809 15.9187L43.3315 0.0371094L59.2503 15.8869Z" fill="white"/>
</mask>
<g mask="url(#mask5_913_1494)">
<mask id="mask6_913_1494" style="mask-type:luminance" maskUnits="userSpaceOnUse" x="27" y="0" width="33" height="16">
<path d="M27.4062 15.8933L43.3315 0.0371094L59.2503 15.8869L27.4062 15.8933Z" fill="white"/>
</mask>
<g mask="url(#mask6_913_1494)">
<path d="M59.2498 15.8869L43.331 31.7368L27.4121 15.8869L43.331 0.0371094L59.2498 15.8869Z" fill="#DFC063"/>
</g>
</g>
</g>
<path d="M-0.00976562 42.1016H7.06541C8.00877 42.1016 8.92315 42.2129 9.80857 42.4356C10.6942 42.658 11.4805 42.9957 12.1675 43.4487C12.8543 43.9015 13.4046 44.4699 13.8183 45.1537C14.2321 45.8376 14.4389 46.641 14.4389 47.5641C14.4389 48.4869 14.2321 49.2902 13.8183 49.974C13.4046 50.658 12.8543 51.2264 12.1675 51.6795C11.4805 52.1327 10.6942 52.4705 9.80857 52.6932C8.92315 52.9156 8.00877 53.0267 7.06541 53.0267H3.21727V59.4042H-0.00976562V42.1016ZM3.21727 43.5844V51.5439H7.06541C7.61155 51.5439 8.11627 51.4616 8.57956 51.2969C9.04311 51.1319 9.44439 50.8847 9.78366 50.555C10.1232 50.2254 10.388 49.8093 10.5781 49.3065C10.7684 48.8039 10.8637 48.223 10.8637 47.5641C10.8637 46.8884 10.7684 46.3034 10.5781 45.8091C10.388 45.3145 10.1232 44.9025 9.78366 44.5732C9.44439 44.2436 9.04311 43.9966 8.57956 43.8318C8.11627 43.6668 7.61155 43.5844 7.06541 43.5844H3.21727Z" fill="#DFC063"/>
<path d="M21.0464 42.3408H23.0825L30.8779 59.6445H27.3525L24.7456 53.8848H17.4966L14.9395 59.6445H13.3008L21.0464 42.3408ZM24.0757 52.4015L21.1211 45.8267L18.1665 52.4015H24.0757Z" fill="#DFC063"/>
<path d="M31.6953 42.1016L37.9262 55.9189L44.1079 42.1016H45.746L38.001 59.4042H35.9653L28.1699 42.1016H31.6953Z" fill="#DFC063"/>
<path d="M51.6284 42.1016H53.664L61.4589 59.4042H57.9341L55.3276 53.6446H48.0781L45.521 59.4042H43.8828L51.6284 42.1016ZM54.6572 52.1618L51.7031 45.5864L48.7485 52.1618H54.6572Z" fill="#DFC063"/>
<path d="M65.0596 44.4988V59.4042H63.5703V42.1016H67.3686L76.5791 57.0064V42.1016H78.0688V59.4042H74.2705L65.0596 44.4988Z" fill="#DFC063"/>
<path d="M86.0073 42.1016V59.4042H82.7803V42.1016H86.0073Z" fill="#DFC063"/>
<path d="M18.0443 69.6143V69.5143H17.9443H16.3809H16.2809V69.6143V77.9958V78.0958H16.3809H17.9443H18.0443V77.9958V69.6143Z" fill="#DFC063" stroke="#DFC063" stroke-width="0.2"/>
<path d="M27.46 78.0958H27.56V77.9958V71.1278L31.8366 78.0484L31.8659 78.0958H31.9217H33.7616H33.8616V77.9958V69.6143V69.5143H33.7616H33.0399H32.9399V69.6143V76.4823L28.6633 69.5617L28.634 69.5143H28.5782H26.7383H26.6383V69.6143V77.9958V78.0958H26.7383H27.46Z" fill="#DFC063" stroke="#DFC063" stroke-width="0.2"/>
<path d="M40.4043 69.5143H40.3043V69.6143V77.9958V78.0958H40.4043H41.9677H42.0677V77.9958V74.2644H45.6116H45.7116V74.1644V73.4457V73.3457H45.6116H42.0677V70.4329H46.2373H46.3373V70.3329V69.6143V69.5143H46.2373H40.4043Z" fill="#DFC063" stroke="#DFC063" stroke-width="0.2"/>
<path d="M53.2164 77.9958V78.0958H53.3164H54.8799H54.9799V77.9958V75.0068H56.4097L58.1846 78.0583L58.2138 78.1084L58.2717 78.108L60.0756 78.0958L60.2486 78.0947L60.1612 77.9453L58.3131 74.786C58.5782 74.7017 58.8268 74.5955 59.0589 74.4675L59.0589 74.4675C59.3279 74.3191 59.5628 74.1393 59.7628 73.9279L59.7629 73.9279C59.9638 73.7151 60.1226 73.4694 60.2393 73.1915C60.3575 72.9103 60.4159 72.5994 60.4159 72.2605C60.4159 71.7981 60.3118 71.3905 60.1005 71.0413C59.8923 70.6969 59.6152 70.4109 59.2705 70.1836C58.9273 69.9571 58.5359 69.7893 58.0972 69.6792C57.66 69.5692 57.2089 69.5143 56.7442 69.5143H53.3164H53.2164V69.6143V77.9958ZM57.4436 70.547L57.4437 70.5471C57.6554 70.6222 57.8373 70.7342 57.9909 70.8833C58.1437 71.0318 58.2644 71.2186 58.3521 71.4463C58.4388 71.6718 58.4837 71.9424 58.4837 72.2605C58.4837 72.5702 58.4389 72.8392 58.3519 73.0692C58.2641 73.3011 58.1434 73.4897 57.991 73.6377C57.8373 73.7869 57.6553 73.8991 57.4436 73.9745C57.2311 74.05 56.9984 74.0881 56.7442 74.0881H54.9799V70.4329H56.7442C56.9983 70.4329 57.2311 70.4713 57.4436 70.547Z" fill="#DFC063" stroke="#DFC063" stroke-width="0.2"/>
<path d="M69.7677 69.5143H69.7029L69.6764 69.5734L65.9244 77.955L65.8613 78.0958H66.0156H66.8095H66.8746L66.9009 78.0364L68.1132 75.3059H71.4954L72.7313 78.0371L72.7579 78.0958H72.8224H74.5302H74.685L74.6214 77.9548L70.8449 69.5732L70.8184 69.5143H70.7538H69.7677ZM68.5275 74.3877L69.8038 71.5465L71.0805 74.3877H68.5275Z" fill="#DFC063" stroke="#DFC063" stroke-width="0.2"/>
</g>
<defs>
<clipPath id="clip0_913_1494">
<rect width="86" height="78" fill="white"/>
</clipPath>
</defs>
</svg>
